<svg width="105" height="102" viewBox="0 0 105 102" fill="none" xmlns="http://www.w3.org/2000/svg">
<g filter="url(#filter0_diiiiif_259_1631)">
<path d="M32.0859 69.3891C45.9405 69.3891 57.1718 58.1576 57.1718 44.3029C57.1718 30.4482 45.9405 19.2168 32.0859 19.2168C18.2313 19.2168 7 30.4482 7 44.3029C7 58.1576 18.2313 69.3891 32.0859 69.3891Z" fill="white" fill-opacity="0.01"/>
</g>
<g filter="url(#filter1_dd_259_1631)">
<path d="M97.4422 35.5287L72.9098 27.9828C69.8406 27.0387 66.5872 28.7615 65.6432 31.8307L58.0973 56.3635C57.1532 59.4327 58.876 62.6861 61.9452 63.6302L86.4776 71.1761C89.5468 72.1202 92.8002 70.3974 93.7442 67.3282L101.29 42.7954C102.234 39.7262 100.511 36.4728 97.4422 35.5287Z" fill="url(#paint0_linear_259_1631)"/>
</g>
<g filter="url(#filter2_dd_259_1631)">
<path d="M76.1088 41.7461H41.6157C38.1521 41.7461 35.3442 44.5539 35.3442 48.0176V82.5111C35.3442 85.9748 38.1521 88.7826 41.6157 88.7826H76.1088C79.5724 88.7826 82.3803 85.9748 82.3803 82.5111V48.0176C82.3803 44.5539 79.5724 41.7461 76.1088 41.7461Z" fill="url(#paint1_linear_259_1631)"/>
</g>
<path d="M63.4841 71.1819C63.1413 72.9529 62.6589 74.5271 62.0802 75.8294C61.4842 77.1703 60.8217 78.1428 60.1778 78.7556C59.5432 79.3595 59.0136 79.5402 58.6014 79.5402C58.1892 79.5402 57.6596 79.3595 57.025 78.7556C56.3811 78.1428 55.7186 77.1703 55.1226 75.8294C54.5439 74.5271 54.0615 72.9529 53.7187 71.1819H63.4841ZM65.3326 71.1819C64.7329 74.4868 63.6664 77.2512 62.3175 79.0605C66.5049 77.9565 69.9534 75.0306 71.7624 71.1819H65.3326ZM72.4711 69.365H65.6079C65.7781 67.9767 65.8689 66.5145 65.8689 65.0043C65.8689 63.6254 65.7931 62.2863 65.6506 61.0071H72.5806C72.9429 62.2771 73.1371 63.618 73.1371 65.0043C73.1371 66.5236 72.9039 67.9884 72.4711 69.365ZM63.7766 69.365H53.4262C53.2479 67.9923 53.1506 66.5292 53.1506 65.0043C53.1506 63.6132 53.2316 62.2735 53.3812 61.0071H63.8216C63.9711 62.2735 64.0522 63.6132 64.0522 65.0043C64.0522 66.5292 63.9549 67.9923 63.7766 69.365ZM51.5949 69.365C51.4246 67.9767 51.3336 66.5145 51.3336 65.0043C51.3336 63.6254 51.4095 62.2863 51.5523 61.0071H44.6224C44.26 62.2771 44.0659 63.618 44.0659 65.0043C44.0659 66.5236 44.299 67.9884 44.7313 69.365H51.5949ZM45.4401 71.1819C47.2497 75.0306 50.6978 77.9565 54.8853 79.0605C53.5364 77.2512 52.4699 74.4868 51.8701 71.1819H45.4401ZM62.0802 54.1793C62.6982 55.57 63.2064 57.2708 63.552 59.1901H53.6508C53.9964 57.2708 54.5046 55.57 55.1226 54.1793C55.7186 52.8384 56.3811 51.8659 57.025 51.253C57.6596 50.6492 58.1892 50.4688 58.6014 50.4688C59.0136 50.4688 59.5432 50.6492 60.1778 51.253C60.8217 51.8659 61.4842 52.8384 62.0802 54.1793ZM65.3964 59.1901H71.9274C70.1679 55.1627 66.6361 52.0867 62.3175 50.9481C63.7155 52.8234 64.8106 55.7246 65.3964 59.1901ZM45.2754 59.1901H51.8064C52.3925 55.7246 53.4872 52.8234 54.8853 50.9481C50.5669 52.0867 47.035 55.1627 45.2754 59.1901Z" fill="url(#paint2_linear_259_1631)"/>
<g filter="url(#filter3_dd_259_1631)">
<path d="M32.0854 59.9807C40.7445 59.9807 47.7641 52.961 47.7641 44.3019C47.7641 35.6427 40.7445 28.623 32.0854 28.623C23.4263 28.623 16.4067 35.6427 16.4067 44.3019C16.4067 52.961 23.4263 59.9807 32.0854 59.9807Z" fill="url(#paint3_linear_259_1631)"/>
<path d="M27.3818 45.0838L30.5176 48.2195L37.573 41.1641" stroke="white" stroke-width="4.181" stroke-linecap="round" stroke-linejoin="round"/>
</g>
<defs>
<filter id="filter0_diiiiif_259_1631" x="0.7285" y="0.402297" width="75.2579" height="75.2579" filterUnits="userSpaceOnUse" color-interpolation-filters="sRGB">
<feFlood flood-opacity="0" result="BackgroundImageFix"/>
<feColorMatrix in="SourceAlpha" type="matrix" values="0 0 0 0 0 0 0 0 0 0 0 0 0 0 0 0 0 0 127 0" result="hardAlpha"/>
<feOffset dx="6.2715" dy="-6.2715"/>
<feGaussianBlur stdDeviation="6.2715"/>
<feComposite in2="hardAlpha" operator="out"/>
<feColorMatrix type="matrix" values="0 0 0 0 1 0 0 0 0 1 0 0 0 0 1 0 0 0 0.85 0"/>
<feBlend mode="normal" in2="BackgroundImageFix" result="effect1_dropShadow_259_1631"/>
<feBlend mode="normal" in="SourceGraphic" in2="effect1_dropShadow_259_1631" result="shape"/>
<feColorMatrix in="SourceAlpha" type="matrix" values="0 0 0 0 0 0 0 0 0 0 0 0 0 0 0 0 0 0 127 0" result="hardAlpha"/>
<feOffset dx="-2.0905" dy="6.2715"/>
<feGaussianBlur stdDeviation="10.4525"/>
<feComposite in2="hardAlpha" operator="arithmetic" k2="-1" k3="1"/>
<feColorMatrix type="matrix" values="0 0 0 0 0 0 0 0 0 0 0 0 0 0 0 0 0 0 0.12 0"/>
<feBlend mode="normal" in2="shape" result="effect2_innerShadow_259_1631"/>
<feColorMatrix in="SourceAlpha" type="matrix" values="0 0 0 0 0 0 0 0 0 0 0 0 0 0 0 0 0 0 127 0" result="hardAlpha"/>
<feOffset dx="-2.0905" dy="4.181"/>
<feGaussianBlur stdDeviation="3.13575"/>
<feComposite in2="hardAlpha" operator="arithmetic" k2="-1" k3="1"/>
<feColorMatrix type="matrix" values="0 0 0 0 0 0 0 0 0 0 0 0 0 0 0 0 0 0 0.06 0"/>
<feBlend mode="normal" in2="effect2_innerShadow_259_1631" result="effect3_innerShadow_259_1631"/>
<feColorMatrix in="SourceAlpha" type="matrix" values="0 0 0 0 0 0 0 0 0 0 0 0 0 0 0 0 0 0 127 0" result="hardAlpha"/>
<feOffset dx="-2.0905" dy="6.2715"/>
<feGaussianBlur stdDeviation="12.543"/>
<feComposite in2="hardAlpha" operator="arithmetic" k2="-1" k3="1"/>
<feColorMatrix type="matrix" values="0 0 0 0 0 0 0 0 0 0 0 0 0 0 0 0 0 0 0.12 0"/>
<feBlend mode="normal" in2="effect3_innerShadow_259_1631" result="effect4_innerShadow_259_1631"/>
<feColorMatrix in="SourceAlpha" type="matrix" values="0 0 0 0 0 0 0 0 0 0 0 0 0 0 0 0 0 0 127 0" result="hardAlpha"/>
<feOffset dx="-2.0905" dy="4.181"/>
<feGaussianBlur stdDeviation="4.181"/>
<feComposite in2="hardAlpha" operator="arithmetic" k2="-1" k3="1"/>
<feColorMatrix type="matrix" values="0 0 0 0 0 0 0 0 0 0 0 0 0 0 0 0 0 0 0.06 0"/>
<feBlend mode="normal" in2="effect4_innerShadow_259_1631" result="effect5_innerShadow_259_1631"/>
<feColorMatrix in="SourceAlpha" type="matrix" values="0 0 0 0 0 0 0 0 0 0 0 0 0 0 0 0 0 0 127 0" result="hardAlpha"/>
<feOffset dx="5.22625" dy="-5.22625"/>
<feGaussianBlur stdDeviation="6.2715"/>
<feComposite in2="hardAlpha" operator="arithmetic" k2="-1" k3="1"/>
<feColorMatrix type="matrix" values="0 0 0 0 1 0 0 0 0 1 0 0 0 0 1 0 0 0 0.9 0"/>
<feBlend mode="normal" in2="effect5_innerShadow_259_1631" result="effect6_innerShadow_259_1631"/>
<feGaussianBlur stdDeviation="0.195985" result="effect7_foregroundBlur_259_1631"/>
</filter>
<filter id="filter1_dd_259_1631" x="49.1175" y="26.7556" width="55.3384" height="55.3394" filterUnits="userSpaceOnUse" color-interpolation-filters="sRGB">
<feFlood flood-opacity="0" result="BackgroundImageFix"/>
<feColorMatrix in="SourceAlpha" type="matrix" values="0 0 0 0 0 0 0 0 0 0 0 0 0 0 0 0 0 0 127 0" result="hardAlpha"/>
<feOffset dx="-2.90711" dy="4.84518"/>
<feGaussianBlur stdDeviation="2.90711"/>
<feColorMatrix type="matrix" values="0 0 0 0 0 0 0 0 0 0 0 0 0 0 0 0 0 0 0.12 0"/>
<feBlend mode="normal" in2="BackgroundImageFix" result="effect1_dropShadow_259_1631"/>
<feColorMatrix in="SourceAlpha" type="matrix" values="0 0 0 0 0 0 0 0 0 0 0 0 0 0 0 0 0 0 127 0" result="hardAlpha"/>
<feOffset dx="-0.969036" dy="1.93807"/>
<feGaussianBlur stdDeviation="1.45355"/>
<feComposite in2="hardAlpha" operator="out"/>
<feColorMatrix type="matrix" values="0 0 0 0 0 0 0 0 0 0 0 0 0 0 0 0 0 0 0.08 0"/>
<feBlend mode="normal" in2="effect1_dropShadow_259_1631" result="effect2_dropShadow_259_1631"/>
<feBlend mode="normal" in="SourceGraphic" in2="effect2_dropShadow_259_1631" result="shape"/>
</filter>
<filter id="filter2_dd_259_1631" x="25.937" y="40.7008" width="59.5791" height="59.5801" filterUnits="userSpaceOnUse" color-interpolation-filters="sRGB">
<feFlood flood-opacity="0" result="BackgroundImageFix"/>
<feColorMatrix in="SourceAlpha" type="matrix" values="0 0 0 0 0 0 0 0 0 0 0 0 0 0 0 0 0 0 127 0" result="hardAlpha"/>
<feOffset dx="-3.13575" dy="5.22625"/>
<feGaussianBlur stdDeviation="3.13575"/>
<feColorMatrix type="matrix" values="0 0 0 0 0 0 0 0 0 0 0 0 0 0 0 0 0 0 0.12 0"/>
<feBlend mode="normal" in2="BackgroundImageFix" result="effect1_dropShadow_259_1631"/>
<feColorMatrix in="SourceAlpha" type="matrix" values="0 0 0 0 0 0 0 0 0 0 0 0 0 0 0 0 0 0 127 0" result="hardAlpha"/>
<feOffset dx="-1.04525" dy="2.0905"/>
<feGaussianBlur stdDeviation="1.56788"/>
<feComposite in2="hardAlpha" operator="out"/>
<feColorMatrix type="matrix" values="0 0 0 0 0 0 0 0 0 0 0 0 0 0 0 0 0 0 0.08 0"/>
<feBlend mode="normal" in2="effect1_dropShadow_259_1631" result="effect2_dropShadow_259_1631"/>
<feBlend mode="normal" in="SourceGraphic" in2="effect2_dropShadow_259_1631" result="shape"/>
</filter>
<filter id="filter3_dd_259_1631" x="6.99949" y="27.5778" width="43.9004" height="43.9004" filterUnits="userSpaceOnUse" color-interpolation-filters="sRGB">
<feFlood flood-opacity="0" result="BackgroundImageFix"/>
<feColorMatrix in="SourceAlpha" type="matrix" values="0 0 0 0 0 0 0 0 0 0 0 0 0 0 0 0 0 0 127 0" result="hardAlpha"/>
<feOffset dx="-3.13575" dy="5.22625"/>
<feGaussianBlur stdDeviation="3.13575"/>
<feColorMatrix type="matrix" values="0 0 0 0 0 0 0 0 0 0 0 0 0 0 0 0 0 0 0.12 0"/>
<feBlend mode="normal" in2="BackgroundImageFix" result="effect1_dropShadow_259_1631"/>
<feColorMatrix in="SourceAlpha" type="matrix" values="0 0 0 0 0 0 0 0 0 0 0 0 0 0 0 0 0 0 127 0" result="hardAlpha"/>
<feOffset dx="-1.04525" dy="2.0905"/>
<feGaussianBlur stdDeviation="1.56788"/>
<feComposite in2="hardAlpha" operator="out"/>
<feColorMatrix type="matrix" values="0 0 0 0 0 0 0 0 0 0 0 0 0 0 0 0 0 0 0.08 0"/>
<feBlend mode="normal" in2="effect1_dropShadow_259_1631" result="effect2_dropShadow_259_1631"/>
<feBlend mode="normal" in="SourceGraphic" in2="effect2_dropShadow_259_1631" result="shape"/>
</filter>
<linearGradient id="paint0_linear_259_1631" x1="102.999" y1="37.2381" x2="56.3877" y2="61.9204" gradientUnits="userSpaceOnUse">
<stop stop-color="#9ACEFE"/>
<stop offset="1" stop-color="#3D7DEB"/>
</linearGradient>
<linearGradient id="paint1_linear_259_1631" x1="82.3805" y1="41.7461" x2="35.3437" y2="88.7822" gradientUnits="userSpaceOnUse">
<stop offset="0.108965" stop-color="#F7F6F4"/>
<stop offset="1" stop-color="#E8E6DF"/>
</linearGradient>
<linearGradient id="paint2_linear_259_1631" x1="73.1371" y1="50.4688" x2="44.0657" y2="79.5394" gradientUnits="userSpaceOnUse">
<stop offset="0.172092" stop-color="#3DCBFF"/>
<stop offset="1" stop-color="#0078D4"/>
</linearGradient>
<linearGradient id="paint3_linear_259_1631" x1="47.7641" y1="28.623" x2="16.4064" y2="59.9804" gradientUnits="userSpaceOnUse">
<stop offset="0.137463" stop-color="#3D7DEB"/>
<stop offset="1" stop-color="#2849AB"/>
</linearGradient>
</defs>
</svg>
