<svg width="36" height="36" viewBox="0 0 36 36" fill="none" xmlns="http://www.w3.org/2000/svg">
<rect x="0.5" y="0.5" width="35" height="35" rx="7.5" fill="url(#paint0_linear_387_1360)"/>
<rect x="0.5" y="0.5" width="35" height="35" rx="7.5" stroke="#EBEBEB"/>
<path d="M18 9.6665C22.6023 9.6665 26.3333 13.3975 26.3333 17.9998C26.3333 22.6022 22.6023 26.3332 18 26.3332C13.3976 26.3332 9.66663 22.6022 9.66663 17.9998C9.66663 13.3975 13.3976 9.6665 18 9.6665ZM20.683 15.4746L16.9583 19.1993L15.3169 17.5579C15.0728 17.3138 14.6771 17.3138 14.433 17.5579C14.1889 17.802 14.1889 18.1977 14.433 18.4418L16.5164 20.5251C16.7604 20.7692 17.1562 20.7692 17.4002 20.5251L21.5669 16.3584C21.811 16.1144 21.811 15.7186 21.5669 15.4746C21.3228 15.2305 20.9271 15.2305 20.683 15.4746Z" fill="white"/>
<defs>
<linearGradient id="paint0_linear_387_1360" x1="0" y1="0" x2="36" y2="36" gradientUnits="userSpaceOnUse">
<stop stop-color="#4285F4"/>
<stop offset="1" stop-color="#0E63F1"/>
</linearGradient>
</defs>
</svg>
