<svg width="36" height="36" viewBox="0 0 36 36" fill="none" xmlns="http://www.w3.org/2000/svg">
<rect x="0.5" y="0.5" width="35" height="35" rx="7.5" fill="url(#paint0_linear_387_1357)"/>
<rect x="0.5" y="0.5" width="35" height="35" rx="7.5" stroke="#EBEBEB"/>
<path d="M20.7083 19.2498H17.375C17.03 19.2498 16.75 18.9698 16.75 18.6248V13.6248C16.75 13.2798 17.03 12.9998 17.375 12.9998C17.72 12.9998 18 13.2798 18 13.6248V17.9998H20.7083C21.0533 17.9998 21.3333 18.2798 21.3333 18.6248C21.3333 18.9698 21.0533 19.2498 20.7083 19.2498ZM18 9.6665C13.3983 9.6665 9.66663 13.3982 9.66663 17.9998C9.66663 22.6015 13.3983 26.3332 18 26.3332C22.6016 26.3332 26.3333 22.6015 26.3333 17.9998C26.3333 13.3982 22.6016 9.6665 18 9.6665Z" fill="white"/>
<defs>
<linearGradient id="paint0_linear_387_1357" x1="0" y1="0" x2="36" y2="36" gradientUnits="userSpaceOnUse">
<stop stop-color="#4285F4"/>
<stop offset="1" stop-color="#0E63F1"/>
</linearGradient>
</defs>
</svg>
