<svg width="96" height="96" viewBox="0 0 96 96" fill="none" xmlns="http://www.w3.org/2000/svg">
<g filter="url(#filter0_diiiiif_259_1626)">
<path d="M29.2501 53.8206C39.1416 53.8206 47.1603 45.8019 47.1603 35.9103C47.1603 26.0187 39.1416 18 29.2501 18C19.3585 18 11.3398 26.0187 11.3398 35.9103C11.3398 45.8019 19.3585 53.8206 29.2501 53.8206Z" fill="white" fill-opacity="0.01"/>
</g>
<g filter="url(#filter1_dd_259_1626)">
<path d="M61.7404 25.0836L34.7725 30.0706C32.3409 30.5202 30.7342 32.856 31.1838 35.2877L37.6975 70.511C38.1471 72.9427 40.4829 74.5494 42.9146 74.0997L69.8825 69.1127C72.3141 68.6631 73.9209 66.3273 73.4712 63.8956L66.9576 28.6723C66.5079 26.2406 64.1721 24.6339 61.7404 25.0836Z" fill="url(#paint0_linear_259_1626)"/>
</g>
<g filter="url(#filter2_dd_259_1626)">
<path d="M71.2273 33.2246H52.7574C50.2845 33.2246 48.2798 35.2293 48.2798 37.7022V73.5227C48.2798 75.9953 50.2845 78.0001 52.7574 78.0001H80.1825C82.6553 78.0001 84.66 75.9953 84.66 73.5227V46.6573L71.2273 33.2246Z" fill="url(#paint1_linear_259_1626)"/>
</g>
<path d="M56.1157 51.6953C55.4975 51.6953 54.9963 52.1965 54.9963 52.8147C54.9963 53.4329 55.4975 53.9341 56.1157 53.9341H76.2645C76.8833 53.9341 77.3843 53.4329 77.3843 52.8147C77.3843 52.1965 76.8833 51.6953 76.2645 51.6953H56.1157Z" fill="url(#paint2_linear_259_1626)"/>
<path d="M56.1157 56.1719C55.4975 56.1719 54.9963 56.673 54.9963 57.2913C54.9963 57.9095 55.4975 58.4106 56.1157 58.4106H67.3096C67.9278 58.4106 68.429 57.9095 68.429 57.2913C68.429 56.673 67.9278 56.1719 67.3096 56.1719H56.1157Z" fill="url(#paint3_linear_259_1626)"/>
<path d="M54.9963 66.2464C54.9963 65.6282 55.4975 65.127 56.1157 65.127H60.5933C61.2115 65.127 61.7127 65.6282 61.7127 66.2464C61.7127 66.8646 61.2115 67.3658 60.5933 67.3658H56.1157C55.4975 67.3658 54.9963 66.8646 54.9963 66.2464Z" fill="url(#paint4_linear_259_1626)"/>
<path d="M56.1157 60.6504C55.4975 60.6504 54.9963 61.1515 54.9963 61.7698C54.9963 62.388 55.4975 62.8891 56.1157 62.8891H76.2645C76.8833 62.8891 77.3843 62.388 77.3843 61.7698C77.3843 61.1515 76.8833 60.6504 76.2645 60.6504H56.1157Z" fill="url(#paint5_linear_259_1626)"/>
<g filter="url(#filter3_dd_259_1626)">
<path d="M71.2273 33.2246V42.1798C71.2273 44.6527 73.2322 46.6573 75.705 46.6573H84.66L71.2273 33.2246Z" fill="url(#paint6_linear_259_1626)"/>
</g>
<g filter="url(#filter4_dd_259_1626)">
<path d="M29.25 47.1046C35.4323 47.1046 40.444 42.0929 40.444 35.9107C40.444 29.7285 35.4323 24.7168 29.25 24.7168C23.0678 24.7168 18.0562 29.7285 18.0562 35.9107C18.0562 42.0929 23.0678 47.1046 29.25 47.1046Z" fill="url(#paint7_linear_259_1626)"/>
<g filter="url(#filter5_dd_259_1626)">
<path d="M32.4706 37.0301C33.1657 37.0301 33.7293 37.5937 33.7293 38.2888V38.8028C33.7293 39.1237 33.629 39.4366 33.4424 39.6977C32.5772 40.9085 31.1643 41.5083 29.25 41.5083C27.3353 41.5083 25.9232 40.9082 25.0601 39.6969C24.8743 39.4361 24.7744 39.1239 24.7744 38.8037V38.2888C24.7744 37.5937 25.338 37.0301 26.0331 37.0301H32.4706ZM29.25 30.3164C30.7956 30.3164 32.0485 31.5693 32.0485 33.1149C32.0485 34.6604 30.7956 35.9134 29.25 35.9134C27.7044 35.9134 26.4516 34.6604 26.4516 33.1149C26.4516 31.5693 27.7044 30.3164 29.25 30.3164Z" fill="white"/>
</g>
</g>
<defs>
<filter id="filter0_diiiiif_259_1626" x="6.86227" y="4.56729" width="53.7308" height="53.7306" filterUnits="userSpaceOnUse" color-interpolation-filters="sRGB">
<feFlood flood-opacity="0" result="BackgroundImageFix"/>
<feColorMatrix in="SourceAlpha" type="matrix" values="0 0 0 0 0 0 0 0 0 0 0 0 0 0 0 0 0 0 127 0" result="hardAlpha"/>
<feOffset dx="4.47757" dy="-4.47757"/>
<feGaussianBlur stdDeviation="4.47757"/>
<feComposite in2="hardAlpha" operator="out"/>
<feColorMatrix type="matrix" values="0 0 0 0 1 0 0 0 0 1 0 0 0 0 1 0 0 0 0.85 0"/>
<feBlend mode="normal" in2="BackgroundImageFix" result="effect1_dropShadow_259_1626"/>
<feBlend mode="normal" in="SourceGraphic" in2="effect1_dropShadow_259_1626" result="shape"/>
<feColorMatrix in="SourceAlpha" type="matrix" values="0 0 0 0 0 0 0 0 0 0 0 0 0 0 0 0 0 0 127 0" result="hardAlpha"/>
<feOffset dx="-1.49252" dy="4.47757"/>
<feGaussianBlur stdDeviation="7.46261"/>
<feComposite in2="hardAlpha" operator="arithmetic" k2="-1" k3="1"/>
<feColorMatrix type="matrix" values="0 0 0 0 0 0 0 0 0 0 0 0 0 0 0 0 0 0 0.12 0"/>
<feBlend mode="normal" in2="shape" result="effect2_innerShadow_259_1626"/>
<feColorMatrix in="SourceAlpha" type="matrix" values="0 0 0 0 0 0 0 0 0 0 0 0 0 0 0 0 0 0 127 0" result="hardAlpha"/>
<feOffset dx="-1.49252" dy="2.98504"/>
<feGaussianBlur stdDeviation="2.23878"/>
<feComposite in2="hardAlpha" operator="arithmetic" k2="-1" k3="1"/>
<feColorMatrix type="matrix" values="0 0 0 0 0 0 0 0 0 0 0 0 0 0 0 0 0 0 0.06 0"/>
<feBlend mode="normal" in2="effect2_innerShadow_259_1626" result="effect3_innerShadow_259_1626"/>
<feColorMatrix in="SourceAlpha" type="matrix" values="0 0 0 0 0 0 0 0 0 0 0 0 0 0 0 0 0 0 127 0" result="hardAlpha"/>
<feOffset dx="-1.49252" dy="4.47757"/>
<feGaussianBlur stdDeviation="8.95513"/>
<feComposite in2="hardAlpha" operator="arithmetic" k2="-1" k3="1"/>
<feColorMatrix type="matrix" values="0 0 0 0 0 0 0 0 0 0 0 0 0 0 0 0 0 0 0.12 0"/>
<feBlend mode="normal" in2="effect3_innerShadow_259_1626" result="effect4_innerShadow_259_1626"/>
<feColorMatrix in="SourceAlpha" type="matrix" values="0 0 0 0 0 0 0 0 0 0 0 0 0 0 0 0 0 0 127 0" result="hardAlpha"/>
<feOffset dx="-1.49252" dy="2.98504"/>
<feGaussianBlur stdDeviation="2.98504"/>
<feComposite in2="hardAlpha" operator="arithmetic" k2="-1" k3="1"/>
<feColorMatrix type="matrix" values="0 0 0 0 0 0 0 0 0 0 0 0 0 0 0 0 0 0 0.06 0"/>
<feBlend mode="normal" in2="effect4_innerShadow_259_1626" result="effect5_innerShadow_259_1626"/>
<feColorMatrix in="SourceAlpha" type="matrix" values="0 0 0 0 0 0 0 0 0 0 0 0 0 0 0 0 0 0 127 0" result="hardAlpha"/>
<feOffset dx="3.73131" dy="-3.73131"/>
<feGaussianBlur stdDeviation="4.47757"/>
<feComposite in2="hardAlpha" operator="arithmetic" k2="-1" k3="1"/>
<feColorMatrix type="matrix" values="0 0 0 0 1 0 0 0 0 1 0 0 0 0 1 0 0 0 0.9 0"/>
<feBlend mode="normal" in2="effect5_innerShadow_259_1626" result="effect6_innerShadow_259_1626"/>
<feGaussianBlur stdDeviation="0.139924" result="effect7_foregroundBlur_259_1626"/>
</filter>
<filter id="filter1_dd_259_1626" x="24.3921" y="24.2616" width="51.3934" height="58.1231" filterUnits="userSpaceOnUse" color-interpolation-filters="sRGB">
<feFlood flood-opacity="0" result="BackgroundImageFix"/>
<feColorMatrix in="SourceAlpha" type="matrix" values="0 0 0 0 0 0 0 0 0 0 0 0 0 0 0 0 0 0 127 0" result="hardAlpha"/>
<feOffset dx="-2.23878" dy="3.73131"/>
<feGaussianBlur stdDeviation="2.23878"/>
<feColorMatrix type="matrix" values="0 0 0 0 0 0 0 0 0 0 0 0 0 0 0 0 0 0 0.12 0"/>
<feBlend mode="normal" in2="BackgroundImageFix" result="effect1_dropShadow_259_1626"/>
<feColorMatrix in="SourceAlpha" type="matrix" values="0 0 0 0 0 0 0 0 0 0 0 0 0 0 0 0 0 0 127 0" result="hardAlpha"/>
<feOffset dx="-0.746261" dy="1.49252"/>
<feGaussianBlur stdDeviation="1.11939"/>
<feComposite in2="hardAlpha" operator="out"/>
<feColorMatrix type="matrix" values="0 0 0 0 0 0 0 0 0 0 0 0 0 0 0 0 0 0 0.08 0"/>
<feBlend mode="normal" in2="effect1_dropShadow_259_1626" result="effect2_dropShadow_259_1626"/>
<feBlend mode="normal" in="SourceGraphic" in2="effect2_dropShadow_259_1626" result="shape"/>
</filter>
<filter id="filter2_dd_259_1626" x="41.5634" y="32.4783" width="45.3355" height="53.7305" filterUnits="userSpaceOnUse" color-interpolation-filters="sRGB">
<feFlood flood-opacity="0" result="BackgroundImageFix"/>
<feColorMatrix in="SourceAlpha" type="matrix" values="0 0 0 0 0 0 0 0 0 0 0 0 0 0 0 0 0 0 127 0" result="hardAlpha"/>
<feOffset dx="-2.23878" dy="3.73131"/>
<feGaussianBlur stdDeviation="2.23878"/>
<feColorMatrix type="matrix" values="0 0 0 0 0 0 0 0 0 0 0 0 0 0 0 0 0 0 0.12 0"/>
<feBlend mode="normal" in2="BackgroundImageFix" result="effect1_dropShadow_259_1626"/>
<feColorMatrix in="SourceAlpha" type="matrix" values="0 0 0 0 0 0 0 0 0 0 0 0 0 0 0 0 0 0 127 0" result="hardAlpha"/>
<feOffset dx="-0.746261" dy="1.49252"/>
<feGaussianBlur stdDeviation="1.11939"/>
<feComposite in2="hardAlpha" operator="out"/>
<feColorMatrix type="matrix" values="0 0 0 0 0 0 0 0 0 0 0 0 0 0 0 0 0 0 0.08 0"/>
<feBlend mode="normal" in2="effect1_dropShadow_259_1626" result="effect2_dropShadow_259_1626"/>
<feBlend mode="normal" in="SourceGraphic" in2="effect2_dropShadow_259_1626" result="shape"/>
</filter>
<filter id="filter3_dd_259_1626" x="65.2572" y="31.7321" width="22.3877" height="22.3887" filterUnits="userSpaceOnUse" color-interpolation-filters="sRGB">
<feFlood flood-opacity="0" result="BackgroundImageFix"/>
<feColorMatrix in="SourceAlpha" type="matrix" values="0 0 0 0 0 0 0 0 0 0 0 0 0 0 0 0 0 0 127 0" result="hardAlpha"/>
<feOffset dx="-1.49252" dy="2.98504"/>
<feGaussianBlur stdDeviation="2.23878"/>
<feColorMatrix type="matrix" values="0 0 0 0 0 0 0 0 0 0 0 0 0 0 0 0 0 0 0.12 0"/>
<feBlend mode="normal" in2="BackgroundImageFix" result="effect1_dropShadow_259_1626"/>
<feColorMatrix in="SourceAlpha" type="matrix" values="0 0 0 0 0 0 0 0 0 0 0 0 0 0 0 0 0 0 127 0" result="hardAlpha"/>
<feOffset dy="0.746261"/>
<feGaussianBlur stdDeviation="1.11939"/>
<feComposite in2="hardAlpha" operator="out"/>
<feColorMatrix type="matrix" values="0 0 0 0 0 0 0 0 0 0 0 0 0 0 0 0 0 0 0.1 0"/>
<feBlend mode="normal" in2="effect1_dropShadow_259_1626" result="effect2_dropShadow_259_1626"/>
<feBlend mode="normal" in="SourceGraphic" in2="effect2_dropShadow_259_1626" result="shape"/>
</filter>
<filter id="filter4_dd_259_1626" x="11.3398" y="23.9705" width="31.3428" height="31.3438" filterUnits="userSpaceOnUse" color-interpolation-filters="sRGB">
<feFlood flood-opacity="0" result="BackgroundImageFix"/>
<feColorMatrix in="SourceAlpha" type="matrix" values="0 0 0 0 0 0 0 0 0 0 0 0 0 0 0 0 0 0 127 0" result="hardAlpha"/>
<feOffset dx="-2.23878" dy="3.73131"/>
<feGaussianBlur stdDeviation="2.23878"/>
<feColorMatrix type="matrix" values="0 0 0 0 0 0 0 0 0 0 0 0 0 0 0 0 0 0 0.12 0"/>
<feBlend mode="normal" in2="BackgroundImageFix" result="effect1_dropShadow_259_1626"/>
<feColorMatrix in="SourceAlpha" type="matrix" values="0 0 0 0 0 0 0 0 0 0 0 0 0 0 0 0 0 0 127 0" result="hardAlpha"/>
<feOffset dx="-0.746261" dy="1.49252"/>
<feGaussianBlur stdDeviation="1.11939"/>
<feComposite in2="hardAlpha" operator="out"/>
<feColorMatrix type="matrix" values="0 0 0 0 0 0 0 0 0 0 0 0 0 0 0 0 0 0 0.08 0"/>
<feBlend mode="normal" in2="effect1_dropShadow_259_1626" result="effect2_dropShadow_259_1626"/>
<feBlend mode="normal" in="SourceGraphic" in2="effect2_dropShadow_259_1626" result="shape"/>
</filter>
<filter id="filter5_dd_259_1626" x="18.0581" y="29.5701" width="17.91" height="20.1465" filterUnits="userSpaceOnUse" color-interpolation-filters="sRGB">
<feFlood flood-opacity="0" result="BackgroundImageFix"/>
<feColorMatrix in="SourceAlpha" type="matrix" values="0 0 0 0 0 0 0 0 0 0 0 0 0 0 0 0 0 0 127 0" result="hardAlpha"/>
<feOffset dx="-2.23878" dy="3.73131"/>
<feGaussianBlur stdDeviation="2.23878"/>
<feColorMatrix type="matrix" values="0 0 0 0 0 0 0 0 0 0 0 0 0 0 0 0 0 0 0.12 0"/>
<feBlend mode="normal" in2="BackgroundImageFix" result="effect1_dropShadow_259_1626"/>
<feColorMatrix in="SourceAlpha" type="matrix" values="0 0 0 0 0 0 0 0 0 0 0 0 0 0 0 0 0 0 127 0" result="hardAlpha"/>
<feOffset dx="-0.746261" dy="1.49252"/>
<feGaussianBlur stdDeviation="1.11939"/>
<feComposite in2="hardAlpha" operator="out"/>
<feColorMatrix type="matrix" values="0 0 0 0 0 0 0 0 0 0 0 0 0 0 0 0 0 0 0.08 0"/>
<feBlend mode="normal" in2="effect1_dropShadow_259_1626" result="effect2_dropShadow_259_1626"/>
<feBlend mode="normal" in="SourceGraphic" in2="effect2_dropShadow_259_1626" result="shape"/>
</filter>
<linearGradient id="paint0_linear_259_1626" x1="66.1433" y1="24.2694" x2="29.5218" y2="67.2551" gradientUnits="userSpaceOnUse">
<stop stop-color="#9ACEFE"/>
<stop offset="1" stop-color="#3D7DEB"/>
</linearGradient>
<linearGradient id="paint1_linear_259_1626" x1="84.66" y1="33.2246" x2="40.8326" y2="68.8345" gradientUnits="userSpaceOnUse">
<stop offset="0.108965" stop-color="#F7F6F4"/>
<stop offset="1" stop-color="#E8E6DF"/>
</linearGradient>
<linearGradient id="paint2_linear_259_1626" x1="77.3843" y1="51.6953" x2="62.6592" y2="72.7309" gradientUnits="userSpaceOnUse">
<stop stop-color="#9ACEFE"/>
<stop offset="1" stop-color="#3D7DEB"/>
</linearGradient>
<linearGradient id="paint3_linear_259_1626" x1="77.3843" y1="51.6943" x2="62.6592" y2="72.7299" gradientUnits="userSpaceOnUse">
<stop stop-color="#9ACEFE"/>
<stop offset="1" stop-color="#3D7DEB"/>
</linearGradient>
<linearGradient id="paint4_linear_259_1626" x1="77.3843" y1="51.6943" x2="62.6592" y2="72.7299" gradientUnits="userSpaceOnUse">
<stop stop-color="#9ACEFE"/>
<stop offset="1" stop-color="#3D7DEB"/>
</linearGradient>
<linearGradient id="paint5_linear_259_1626" x1="77.3843" y1="51.6952" x2="62.6592" y2="72.7308" gradientUnits="userSpaceOnUse">
<stop stop-color="#9ACEFE"/>
<stop offset="1" stop-color="#3D7DEB"/>
</linearGradient>
<linearGradient id="paint6_linear_259_1626" x1="84.66" y1="33.2246" x2="71.2273" y2="46.6573" gradientUnits="userSpaceOnUse">
<stop offset="0.182292" stop-color="#E8E6DF"/>
<stop offset="0.891035" stop-color="white"/>
</linearGradient>
<linearGradient id="paint7_linear_259_1626" x1="40.444" y1="24.7168" x2="18.0561" y2="47.1046" gradientUnits="userSpaceOnUse">
<stop offset="0.137463" stop-color="#3D7DEB"/>
<stop offset="1" stop-color="#2849AB"/>
</linearGradient>
</defs>
</svg>
