<svg width="36" height="36" viewBox="0 0 36 36" fill="none" xmlns="http://www.w3.org/2000/svg">
<rect x="0.5" y="0.5" width="35" height="35" rx="7.5" fill="url(#paint0_linear_387_1354)"/>
<rect x="0.5" y="0.5" width="35" height="35" rx="7.5" stroke="#EBEBEB"/>
<path d="M21.3334 12.1668C21.3334 11.0162 22.2661 10.0835 23.4167 10.0835C24.5673 10.0835 25.5 11.0162 25.5 12.1668V12.3752C25.5 12.7203 25.7799 13.0002 26.125 13.0002C26.4702 13.0002 26.75 12.7203 26.75 12.3752V12.1668C26.75 10.3259 25.2577 8.8335 23.4167 8.8335C21.5758 8.8335 20.0834 10.3259 20.0834 12.1668V13.8335H14.0417C12.5459 13.8335 11.3334 15.0461 11.3334 16.5418V22.7918C11.3334 24.2876 12.5459 25.5002 14.0417 25.5002H21.9584C23.4541 25.5002 24.6667 24.2876 24.6667 22.7918V16.5418C24.6667 15.0461 23.4541 13.8335 21.9584 13.8335H21.3334V12.1668ZM18 20.9168C17.3097 20.9168 16.75 20.3572 16.75 19.6668C16.75 18.9765 17.3097 18.4168 18 18.4168C18.6904 18.4168 19.25 18.9765 19.25 19.6668C19.25 20.3572 18.6904 20.9168 18 20.9168Z" fill="white"/>
<defs>
<linearGradient id="paint0_linear_387_1354" x1="0" y1="0" x2="36" y2="36" gradientUnits="userSpaceOnUse">
<stop stop-color="#4285F4"/>
<stop offset="1" stop-color="#0E63F1"/>
</linearGradient>
</defs>
</svg>
