<svg width="20" height="20" viewBox="0 0 20 20" fill="none" xmlns="http://www.w3.org/2000/svg">
<path d="M9.99996 1.6665C14.6023 1.6665 18.3333 5.39746 18.3333 9.99984C18.3333 14.6022 14.6023 18.3332 9.99996 18.3332C5.39759 18.3332 1.66663 14.6022 1.66663 9.99984C1.66663 5.39746 5.39759 1.6665 9.99996 1.6665ZM12.683 7.47456L8.95829 11.1993L7.3169 9.5579C7.07282 9.31382 6.6771 9.31382 6.43302 9.5579C6.18894 9.80197 6.18894 10.1977 6.43302 10.4418L8.51635 12.5251C8.76043 12.7692 9.15616 12.7692 9.40023 12.5251L13.5669 8.35845C13.811 8.11437 13.811 7.71864 13.5669 7.47456C13.3228 7.23048 12.9271 7.23048 12.683 7.47456Z" fill="white"/>
</svg>
