<svg width="105" height="102" viewBox="0 0 105 102" fill="none" xmlns="http://www.w3.org/2000/svg">
<g filter="url(#filter0_diiiiif_259_1629)">
<path d="M32.0864 69.3891C45.941 69.3891 57.1723 58.1576 57.1723 44.3029C57.1723 30.4482 45.941 19.2168 32.0864 19.2168C18.2318 19.2168 7.00049 30.4482 7.00049 44.3029C7.00049 58.1576 18.2318 69.3891 32.0864 69.3891Z" fill="white" fill-opacity="0.01"/>
</g>
<g filter="url(#filter1_dd_259_1629)">
<path d="M97.4427 35.5287L72.9103 27.9828C69.8411 27.0387 66.5877 28.7615 65.6437 31.8307L58.0978 56.3635C57.1537 59.4327 58.8765 62.6861 61.9457 63.6302L86.4781 71.1761C89.5473 72.1202 92.8007 70.3974 93.7447 67.3282L101.291 42.7954C102.235 39.7262 100.512 36.4728 97.4427 35.5287Z" fill="url(#paint0_linear_259_1629)"/>
</g>
<g filter="url(#filter2_dd_259_1629)">
<path d="M76.1092 41.7461H41.6162C38.1526 41.7461 35.3447 44.5539 35.3447 48.0176V82.5111C35.3447 85.9748 38.1526 88.7826 41.6162 88.7826H76.1092C79.5729 88.7826 82.3808 85.9748 82.3808 82.5111V48.0176C82.3808 44.5539 79.5729 41.7461 76.1092 41.7461Z" fill="url(#paint1_linear_259_1629)"/>
</g>
<path d="M70.8634 60.6093V71.3464C70.8634 73.2023 69.3589 74.7069 67.5026 74.7069H49.9002C48.0443 74.7069 46.5396 73.2023 46.5396 71.3464V60.6093L58.316 67.0867C58.556 67.2188 58.8471 67.2188 59.0871 67.0867L70.8634 60.6093ZM67.5026 55.5039C69.3319 55.5039 70.8199 56.9651 70.8627 58.7838L58.7016 65.4725L46.5408 58.7838L46.5425 58.7259C46.6151 56.9342 48.0907 55.5039 49.9002 55.5039H67.5026Z" fill="url(#paint2_linear_259_1629)"/>
<g filter="url(#filter3_dd_259_1629)">
<path d="M32.1269 60.0217C40.786 60.0217 47.8056 53.0021 47.8056 44.3429C47.8056 35.6837 40.786 28.6641 32.1269 28.6641C23.4678 28.6641 16.4482 35.6837 16.4482 44.3429C16.4482 53.0021 23.4678 60.0217 32.1269 60.0217Z" fill="url(#paint3_linear_259_1629)"/>
<path d="M32.4372 37.3848C36.4512 37.3848 39.7049 40.6393 39.7049 44.6526C39.7049 48.6658 36.4512 51.9204 32.4372 51.9204C28.4232 51.9204 25.1694 48.6658 25.1694 44.6526C25.1694 40.6393 28.4232 37.3848 32.4372 37.3848ZM32.4384 46.8356C32.0376 46.8356 31.7127 47.1606 31.7127 47.5614C31.7127 47.9622 32.0376 48.2872 32.4384 48.2872C32.8393 48.2872 33.1643 47.9622 33.1643 47.5614C33.1643 47.1606 32.8393 46.8356 32.4384 46.8356ZM32.4369 41.0187C32.0642 41.0188 31.7571 41.2995 31.7152 41.661L31.7104 41.7457L31.7117 45.3802L31.7166 45.465C31.7587 45.8265 32.066 46.1069 32.4387 46.1067C32.8115 46.1066 33.1185 45.8259 33.1604 45.4644L33.1653 45.3797L33.1639 41.7452L33.159 41.6604C33.1169 41.299 32.8096 41.0185 32.4369 41.0187Z" fill="white"/>
</g>
<defs>
<filter id="filter0_diiiiif_259_1629" x="0.728988" y="0.402297" width="75.2579" height="75.2579" filterUnits="userSpaceOnUse" color-interpolation-filters="sRGB">
<feFlood flood-opacity="0" result="BackgroundImageFix"/>
<feColorMatrix in="SourceAlpha" type="matrix" values="0 0 0 0 0 0 0 0 0 0 0 0 0 0 0 0 0 0 127 0" result="hardAlpha"/>
<feOffset dx="6.2715" dy="-6.2715"/>
<feGaussianBlur stdDeviation="6.2715"/>
<feComposite in2="hardAlpha" operator="out"/>
<feColorMatrix type="matrix" values="0 0 0 0 1 0 0 0 0 1 0 0 0 0 1 0 0 0 0.85 0"/>
<feBlend mode="normal" in2="BackgroundImageFix" result="effect1_dropShadow_259_1629"/>
<feBlend mode="normal" in="SourceGraphic" in2="effect1_dropShadow_259_1629" result="shape"/>
<feColorMatrix in="SourceAlpha" type="matrix" values="0 0 0 0 0 0 0 0 0 0 0 0 0 0 0 0 0 0 127 0" result="hardAlpha"/>
<feOffset dx="-2.0905" dy="6.2715"/>
<feGaussianBlur stdDeviation="10.4525"/>
<feComposite in2="hardAlpha" operator="arithmetic" k2="-1" k3="1"/>
<feColorMatrix type="matrix" values="0 0 0 0 0 0 0 0 0 0 0 0 0 0 0 0 0 0 0.12 0"/>
<feBlend mode="normal" in2="shape" result="effect2_innerShadow_259_1629"/>
<feColorMatrix in="SourceAlpha" type="matrix" values="0 0 0 0 0 0 0 0 0 0 0 0 0 0 0 0 0 0 127 0" result="hardAlpha"/>
<feOffset dx="-2.0905" dy="4.181"/>
<feGaussianBlur stdDeviation="3.13575"/>
<feComposite in2="hardAlpha" operator="arithmetic" k2="-1" k3="1"/>
<feColorMatrix type="matrix" values="0 0 0 0 0 0 0 0 0 0 0 0 0 0 0 0 0 0 0.06 0"/>
<feBlend mode="normal" in2="effect2_innerShadow_259_1629" result="effect3_innerShadow_259_1629"/>
<feColorMatrix in="SourceAlpha" type="matrix" values="0 0 0 0 0 0 0 0 0 0 0 0 0 0 0 0 0 0 127 0" result="hardAlpha"/>
<feOffset dx="-2.0905" dy="6.2715"/>
<feGaussianBlur stdDeviation="12.543"/>
<feComposite in2="hardAlpha" operator="arithmetic" k2="-1" k3="1"/>
<feColorMatrix type="matrix" values="0 0 0 0 0 0 0 0 0 0 0 0 0 0 0 0 0 0 0.12 0"/>
<feBlend mode="normal" in2="effect3_innerShadow_259_1629" result="effect4_innerShadow_259_1629"/>
<feColorMatrix in="SourceAlpha" type="matrix" values="0 0 0 0 0 0 0 0 0 0 0 0 0 0 0 0 0 0 127 0" result="hardAlpha"/>
<feOffset dx="-2.0905" dy="4.181"/>
<feGaussianBlur stdDeviation="4.181"/>
<feComposite in2="hardAlpha" operator="arithmetic" k2="-1" k3="1"/>
<feColorMatrix type="matrix" values="0 0 0 0 0 0 0 0 0 0 0 0 0 0 0 0 0 0 0.06 0"/>
<feBlend mode="normal" in2="effect4_innerShadow_259_1629" result="effect5_innerShadow_259_1629"/>
<feColorMatrix in="SourceAlpha" type="matrix" values="0 0 0 0 0 0 0 0 0 0 0 0 0 0 0 0 0 0 127 0" result="hardAlpha"/>
<feOffset dx="5.22625" dy="-5.22625"/>
<feGaussianBlur stdDeviation="6.2715"/>
<feComposite in2="hardAlpha" operator="arithmetic" k2="-1" k3="1"/>
<feColorMatrix type="matrix" values="0 0 0 0 1 0 0 0 0 1 0 0 0 0 1 0 0 0 0.9 0"/>
<feBlend mode="normal" in2="effect5_innerShadow_259_1629" result="effect6_innerShadow_259_1629"/>
<feGaussianBlur stdDeviation="0.195985" result="effect7_foregroundBlur_259_1629"/>
</filter>
<filter id="filter1_dd_259_1629" x="49.118" y="26.7556" width="55.3384" height="55.3394" filterUnits="userSpaceOnUse" color-interpolation-filters="sRGB">
<feFlood flood-opacity="0" result="BackgroundImageFix"/>
<feColorMatrix in="SourceAlpha" type="matrix" values="0 0 0 0 0 0 0 0 0 0 0 0 0 0 0 0 0 0 127 0" result="hardAlpha"/>
<feOffset dx="-2.90711" dy="4.84518"/>
<feGaussianBlur stdDeviation="2.90711"/>
<feColorMatrix type="matrix" values="0 0 0 0 0 0 0 0 0 0 0 0 0 0 0 0 0 0 0.12 0"/>
<feBlend mode="normal" in2="BackgroundImageFix" result="effect1_dropShadow_259_1629"/>
<feColorMatrix in="SourceAlpha" type="matrix" values="0 0 0 0 0 0 0 0 0 0 0 0 0 0 0 0 0 0 127 0" result="hardAlpha"/>
<feOffset dx="-0.969036" dy="1.93807"/>
<feGaussianBlur stdDeviation="1.45355"/>
<feComposite in2="hardAlpha" operator="out"/>
<feColorMatrix type="matrix" values="0 0 0 0 0 0 0 0 0 0 0 0 0 0 0 0 0 0 0.08 0"/>
<feBlend mode="normal" in2="effect1_dropShadow_259_1629" result="effect2_dropShadow_259_1629"/>
<feBlend mode="normal" in="SourceGraphic" in2="effect2_dropShadow_259_1629" result="shape"/>
</filter>
<filter id="filter2_dd_259_1629" x="25.9375" y="40.7008" width="59.5791" height="59.5801" filterUnits="userSpaceOnUse" color-interpolation-filters="sRGB">
<feFlood flood-opacity="0" result="BackgroundImageFix"/>
<feColorMatrix in="SourceAlpha" type="matrix" values="0 0 0 0 0 0 0 0 0 0 0 0 0 0 0 0 0 0 127 0" result="hardAlpha"/>
<feOffset dx="-3.13575" dy="5.22625"/>
<feGaussianBlur stdDeviation="3.13575"/>
<feColorMatrix type="matrix" values="0 0 0 0 0 0 0 0 0 0 0 0 0 0 0 0 0 0 0.12 0"/>
<feBlend mode="normal" in2="BackgroundImageFix" result="effect1_dropShadow_259_1629"/>
<feColorMatrix in="SourceAlpha" type="matrix" values="0 0 0 0 0 0 0 0 0 0 0 0 0 0 0 0 0 0 127 0" result="hardAlpha"/>
<feOffset dx="-1.04525" dy="2.0905"/>
<feGaussianBlur stdDeviation="1.56788"/>
<feComposite in2="hardAlpha" operator="out"/>
<feColorMatrix type="matrix" values="0 0 0 0 0 0 0 0 0 0 0 0 0 0 0 0 0 0 0.08 0"/>
<feBlend mode="normal" in2="effect1_dropShadow_259_1629" result="effect2_dropShadow_259_1629"/>
<feBlend mode="normal" in="SourceGraphic" in2="effect2_dropShadow_259_1629" result="shape"/>
</filter>
<filter id="filter3_dd_259_1629" x="7.04099" y="27.6188" width="43.9004" height="43.9004" filterUnits="userSpaceOnUse" color-interpolation-filters="sRGB">
<feFlood flood-opacity="0" result="BackgroundImageFix"/>
<feColorMatrix in="SourceAlpha" type="matrix" values="0 0 0 0 0 0 0 0 0 0 0 0 0 0 0 0 0 0 127 0" result="hardAlpha"/>
<feOffset dx="-3.13575" dy="5.22625"/>
<feGaussianBlur stdDeviation="3.13575"/>
<feColorMatrix type="matrix" values="0 0 0 0 0 0 0 0 0 0 0 0 0 0 0 0 0 0 0.12 0"/>
<feBlend mode="normal" in2="BackgroundImageFix" result="effect1_dropShadow_259_1629"/>
<feColorMatrix in="SourceAlpha" type="matrix" values="0 0 0 0 0 0 0 0 0 0 0 0 0 0 0 0 0 0 127 0" result="hardAlpha"/>
<feOffset dx="-1.04525" dy="2.0905"/>
<feGaussianBlur stdDeviation="1.56788"/>
<feComposite in2="hardAlpha" operator="out"/>
<feColorMatrix type="matrix" values="0 0 0 0 0 0 0 0 0 0 0 0 0 0 0 0 0 0 0.08 0"/>
<feBlend mode="normal" in2="effect1_dropShadow_259_1629" result="effect2_dropShadow_259_1629"/>
<feBlend mode="normal" in="SourceGraphic" in2="effect2_dropShadow_259_1629" result="shape"/>
</filter>
<linearGradient id="paint0_linear_259_1629" x1="103" y1="37.2381" x2="56.3882" y2="61.9204" gradientUnits="userSpaceOnUse">
<stop offset="0.126947" stop-color="#F6465A"/>
<stop offset="1" stop-color="#A42331"/>
</linearGradient>
<linearGradient id="paint1_linear_259_1629" x1="82.381" y1="41.7461" x2="35.3442" y2="88.7822" gradientUnits="userSpaceOnUse">
<stop offset="0.108965" stop-color="#F7F6F4"/>
<stop offset="1" stop-color="#E8E6DF"/>
</linearGradient>
<linearGradient id="paint2_linear_259_1629" x1="70.8634" y1="55.5039" x2="52.1847" y2="79.1636" gradientUnits="userSpaceOnUse">
<stop offset="0.175465" stop-color="#FFC424"/>
<stop offset="1" stop-color="#E7512C"/>
</linearGradient>
<linearGradient id="paint3_linear_259_1629" x1="47.8056" y1="28.664" x2="16.4479" y2="60.0214" gradientUnits="userSpaceOnUse">
<stop offset="0.126947" stop-color="#F6465A"/>
<stop offset="1" stop-color="#A42331"/>
</linearGradient>
</defs>
</svg>
