<svg width="20" height="20" viewBox="0 0 20 20" fill="none" xmlns="http://www.w3.org/2000/svg">
<path d="M13.3334 4.16683C13.3334 3.01624 14.2661 2.0835 15.4167 2.0835C16.5673 2.0835 17.5 3.01624 17.5 4.16683V4.37516C17.5 4.72034 17.7799 5.00016 18.125 5.00016C18.4702 5.00016 18.75 4.72034 18.75 4.37516V4.16683C18.75 2.32588 17.2577 0.833496 15.4167 0.833496C13.5758 0.833496 12.0834 2.32588 12.0834 4.16683V5.8335H6.04171C4.54594 5.8335 3.33337 7.04606 3.33337 8.54183V14.7918C3.33337 16.2876 4.54594 17.5002 6.04171 17.5002H13.9584C15.4541 17.5002 16.6667 16.2876 16.6667 14.7918V8.54183C16.6667 7.04606 15.4541 5.8335 13.9584 5.8335H13.3334V4.16683ZM10 12.9168C9.30968 12.9168 8.75004 12.3572 8.75004 11.6668C8.75004 10.9765 9.30968 10.4168 10 10.4168C10.6904 10.4168 11.25 10.9765 11.25 11.6668C11.25 12.3572 10.6904 12.9168 10 12.9168Z" fill="white"/>
</svg>
