<svg width="20" height="20" viewBox="0 0 20 20" fill="none" xmlns="http://www.w3.org/2000/svg">
<path d="M12.7083 11.2498H9.37496C9.02996 11.2498 8.74996 10.9698 8.74996 10.6248V5.62484C8.74996 5.27984 9.02996 4.99984 9.37496 4.99984C9.71996 4.99984 9.99996 5.27984 9.99996 5.62484V9.99984H12.7083C13.0533 9.99984 13.3333 10.2798 13.3333 10.6248C13.3333 10.9698 13.0533 11.2498 12.7083 11.2498ZM9.99996 1.6665C5.39829 1.6665 1.66663 5.39817 1.66663 9.99984C1.66663 14.6015 5.39829 18.3332 9.99996 18.3332C14.6016 18.3332 18.3333 14.6015 18.3333 9.99984C18.3333 5.39817 14.6016 1.6665 9.99996 1.6665Z" fill="white"/>
</svg>
