<svg width="105" height="102" viewBox="0 0 105 102" fill="none" xmlns="http://www.w3.org/2000/svg">
<g filter="url(#filter0_diiiiif_259_1628)">
<path d="M32.0864 69.3891C45.941 69.3891 57.1723 58.1576 57.1723 44.3029C57.1723 30.4482 45.941 19.2168 32.0864 19.2168C18.2318 19.2168 7.00049 30.4482 7.00049 44.3029C7.00049 58.1576 18.2318 69.3891 32.0864 69.3891Z" fill="white" fill-opacity="0.01"/>
</g>
<g filter="url(#filter1_dd_259_1628)">
<path d="M97.4427 35.5287L72.9103 27.9828C69.8411 27.0387 66.5877 28.7615 65.6437 31.8307L58.0978 56.3635C57.1537 59.4327 58.8765 62.6861 61.9457 63.6302L86.4781 71.1761C89.5473 72.1202 92.8007 70.3974 93.7447 67.3282L101.291 42.7954C102.235 39.7262 100.512 36.4728 97.4427 35.5287Z" fill="url(#paint0_linear_259_1628)"/>
</g>
<g filter="url(#filter2_dd_259_1628)">
<path d="M76.1092 41.7461H41.6162C38.1526 41.7461 35.3447 44.5539 35.3447 48.0176V82.5111C35.3447 85.9748 38.1526 88.7826 41.6162 88.7826H76.1092C79.5729 88.7826 82.3808 85.9748 82.3808 82.5111V48.0176C82.3808 44.5539 79.5729 41.7461 76.1092 41.7461Z" fill="url(#paint1_linear_259_1628)"/>
</g>
<path d="M63.4841 71.1819C63.1413 72.9529 62.6589 74.5271 62.0802 75.8294C61.4842 77.1703 60.8217 78.1428 60.1778 78.7556C59.5432 79.3595 59.0136 79.5402 58.6014 79.5402C58.1892 79.5402 57.6596 79.3595 57.025 78.7556C56.3811 78.1428 55.7186 77.1703 55.1226 75.8294C54.5439 74.5271 54.0615 72.9529 53.7187 71.1819H63.4841ZM65.333 71.1819C64.7329 74.4868 63.6664 77.2512 62.3175 79.0605C66.5052 77.9565 69.953 75.0306 71.7627 71.1819H65.333ZM72.4715 69.365H65.6082C65.7785 67.9767 65.8692 66.5145 65.8692 65.0043C65.8692 63.6254 65.7935 62.2863 65.6502 61.0071H72.5802C72.9425 62.2771 73.1367 63.618 73.1367 65.0043C73.1367 66.5236 72.9035 67.9884 72.4715 69.365ZM63.7766 69.365H53.4262C53.2479 67.9923 53.1506 66.5292 53.1506 65.0043C53.1506 63.6132 53.2317 62.2735 53.3812 61.0071H63.8216C63.9712 62.2735 64.0522 63.6132 64.0522 65.0043C64.0522 66.5292 63.9549 67.9923 63.7766 69.365ZM51.5949 69.365C51.4246 67.9767 51.3336 66.5145 51.3336 65.0043C51.3336 63.6254 51.4095 62.2863 51.5523 61.0071H44.6224C44.26 62.2771 44.0659 63.618 44.0659 65.0043C44.0659 66.5236 44.299 67.9884 44.7313 69.365H51.5949ZM45.4401 71.1819C47.2497 75.0306 50.6978 77.9565 54.8853 79.0605C53.5364 77.2512 52.4699 74.4868 51.8702 71.1819H45.4401ZM62.0802 54.1793C62.6982 55.57 63.2064 57.2708 63.552 59.1901H53.6508C53.9964 57.2708 54.5046 55.57 55.1226 54.1793C55.7186 52.8384 56.3811 51.8659 57.025 51.253C57.6596 50.6492 58.1892 50.4688 58.6014 50.4688C59.0136 50.4688 59.5432 50.6492 60.1778 51.253C60.8217 51.8659 61.4842 52.8384 62.0802 54.1793ZM65.396 59.1901H71.9277C70.1675 55.1627 66.6357 52.0867 62.3175 50.9481C63.7156 52.8234 64.8102 55.7246 65.396 59.1901ZM45.2754 59.1901H51.8064C52.3926 55.7246 53.4873 52.8234 54.8853 50.9481C50.5669 52.0867 47.035 55.1627 45.2754 59.1901Z" fill="url(#paint2_linear_259_1628)"/>
<g filter="url(#filter3_dd_259_1628)">
<path d="M32.1269 60.0217C40.786 60.0217 47.8056 53.0021 47.8056 44.3429C47.8056 35.6837 40.786 28.6641 32.1269 28.6641C23.4678 28.6641 16.4482 35.6837 16.4482 44.3429C16.4482 53.0021 23.4678 60.0217 32.1269 60.0217Z" fill="url(#paint3_linear_259_1628)"/>
<path d="M32.4372 37.3848C36.4512 37.3848 39.7049 40.6393 39.7049 44.6526C39.7049 48.6658 36.4512 51.9204 32.4372 51.9204C28.4232 51.9204 25.1694 48.6658 25.1694 44.6526C25.1694 40.6393 28.4232 37.3848 32.4372 37.3848ZM32.4384 46.8356C32.0376 46.8356 31.7127 47.1606 31.7127 47.5614C31.7127 47.9622 32.0376 48.2872 32.4384 48.2872C32.8393 48.2872 33.1643 47.9622 33.1643 47.5614C33.1643 47.1606 32.8393 46.8356 32.4384 46.8356ZM32.4369 41.0187C32.0642 41.0188 31.7571 41.2995 31.7152 41.661L31.7104 41.7457L31.7117 45.3802L31.7166 45.465C31.7587 45.8265 32.066 46.1069 32.4387 46.1067C32.8115 46.1066 33.1185 45.8259 33.1604 45.4644L33.1653 45.3797L33.1639 41.7452L33.159 41.6604C33.1169 41.299 32.8096 41.0185 32.4369 41.0187Z" fill="white"/>
</g>
<defs>
<filter id="filter0_diiiiif_259_1628" x="0.728988" y="0.402297" width="75.2579" height="75.2579" filterUnits="userSpaceOnUse" color-interpolation-filters="sRGB">
<feFlood flood-opacity="0" result="BackgroundImageFix"/>
<feColorMatrix in="SourceAlpha" type="matrix" values="0 0 0 0 0 0 0 0 0 0 0 0 0 0 0 0 0 0 127 0" result="hardAlpha"/>
<feOffset dx="6.2715" dy="-6.2715"/>
<feGaussianBlur stdDeviation="6.2715"/>
<feComposite in2="hardAlpha" operator="out"/>
<feColorMatrix type="matrix" values="0 0 0 0 1 0 0 0 0 1 0 0 0 0 1 0 0 0 0.85 0"/>
<feBlend mode="normal" in2="BackgroundImageFix" result="effect1_dropShadow_259_1628"/>
<feBlend mode="normal" in="SourceGraphic" in2="effect1_dropShadow_259_1628" result="shape"/>
<feColorMatrix in="SourceAlpha" type="matrix" values="0 0 0 0 0 0 0 0 0 0 0 0 0 0 0 0 0 0 127 0" result="hardAlpha"/>
<feOffset dx="-2.0905" dy="6.2715"/>
<feGaussianBlur stdDeviation="10.4525"/>
<feComposite in2="hardAlpha" operator="arithmetic" k2="-1" k3="1"/>
<feColorMatrix type="matrix" values="0 0 0 0 0 0 0 0 0 0 0 0 0 0 0 0 0 0 0.12 0"/>
<feBlend mode="normal" in2="shape" result="effect2_innerShadow_259_1628"/>
<feColorMatrix in="SourceAlpha" type="matrix" values="0 0 0 0 0 0 0 0 0 0 0 0 0 0 0 0 0 0 127 0" result="hardAlpha"/>
<feOffset dx="-2.0905" dy="4.181"/>
<feGaussianBlur stdDeviation="3.13575"/>
<feComposite in2="hardAlpha" operator="arithmetic" k2="-1" k3="1"/>
<feColorMatrix type="matrix" values="0 0 0 0 0 0 0 0 0 0 0 0 0 0 0 0 0 0 0.06 0"/>
<feBlend mode="normal" in2="effect2_innerShadow_259_1628" result="effect3_innerShadow_259_1628"/>
<feColorMatrix in="SourceAlpha" type="matrix" values="0 0 0 0 0 0 0 0 0 0 0 0 0 0 0 0 0 0 127 0" result="hardAlpha"/>
<feOffset dx="-2.0905" dy="6.2715"/>
<feGaussianBlur stdDeviation="12.543"/>
<feComposite in2="hardAlpha" operator="arithmetic" k2="-1" k3="1"/>
<feColorMatrix type="matrix" values="0 0 0 0 0 0 0 0 0 0 0 0 0 0 0 0 0 0 0.12 0"/>
<feBlend mode="normal" in2="effect3_innerShadow_259_1628" result="effect4_innerShadow_259_1628"/>
<feColorMatrix in="SourceAlpha" type="matrix" values="0 0 0 0 0 0 0 0 0 0 0 0 0 0 0 0 0 0 127 0" result="hardAlpha"/>
<feOffset dx="-2.0905" dy="4.181"/>
<feGaussianBlur stdDeviation="4.181"/>
<feComposite in2="hardAlpha" operator="arithmetic" k2="-1" k3="1"/>
<feColorMatrix type="matrix" values="0 0 0 0 0 0 0 0 0 0 0 0 0 0 0 0 0 0 0.06 0"/>
<feBlend mode="normal" in2="effect4_innerShadow_259_1628" result="effect5_innerShadow_259_1628"/>
<feColorMatrix in="SourceAlpha" type="matrix" values="0 0 0 0 0 0 0 0 0 0 0 0 0 0 0 0 0 0 127 0" result="hardAlpha"/>
<feOffset dx="5.22625" dy="-5.22625"/>
<feGaussianBlur stdDeviation="6.2715"/>
<feComposite in2="hardAlpha" operator="arithmetic" k2="-1" k3="1"/>
<feColorMatrix type="matrix" values="0 0 0 0 1 0 0 0 0 1 0 0 0 0 1 0 0 0 0.9 0"/>
<feBlend mode="normal" in2="effect5_innerShadow_259_1628" result="effect6_innerShadow_259_1628"/>
<feGaussianBlur stdDeviation="0.195985" result="effect7_foregroundBlur_259_1628"/>
</filter>
<filter id="filter1_dd_259_1628" x="49.118" y="26.7556" width="55.3384" height="55.3394" filterUnits="userSpaceOnUse" color-interpolation-filters="sRGB">
<feFlood flood-opacity="0" result="BackgroundImageFix"/>
<feColorMatrix in="SourceAlpha" type="matrix" values="0 0 0 0 0 0 0 0 0 0 0 0 0 0 0 0 0 0 127 0" result="hardAlpha"/>
<feOffset dx="-2.90711" dy="4.84518"/>
<feGaussianBlur stdDeviation="2.90711"/>
<feColorMatrix type="matrix" values="0 0 0 0 0 0 0 0 0 0 0 0 0 0 0 0 0 0 0.12 0"/>
<feBlend mode="normal" in2="BackgroundImageFix" result="effect1_dropShadow_259_1628"/>
<feColorMatrix in="SourceAlpha" type="matrix" values="0 0 0 0 0 0 0 0 0 0 0 0 0 0 0 0 0 0 127 0" result="hardAlpha"/>
<feOffset dx="-0.969036" dy="1.93807"/>
<feGaussianBlur stdDeviation="1.45355"/>
<feComposite in2="hardAlpha" operator="out"/>
<feColorMatrix type="matrix" values="0 0 0 0 0 0 0 0 0 0 0 0 0 0 0 0 0 0 0.08 0"/>
<feBlend mode="normal" in2="effect1_dropShadow_259_1628" result="effect2_dropShadow_259_1628"/>
<feBlend mode="normal" in="SourceGraphic" in2="effect2_dropShadow_259_1628" result="shape"/>
</filter>
<filter id="filter2_dd_259_1628" x="25.9375" y="40.7008" width="59.5791" height="59.5801" filterUnits="userSpaceOnUse" color-interpolation-filters="sRGB">
<feFlood flood-opacity="0" result="BackgroundImageFix"/>
<feColorMatrix in="SourceAlpha" type="matrix" values="0 0 0 0 0 0 0 0 0 0 0 0 0 0 0 0 0 0 127 0" result="hardAlpha"/>
<feOffset dx="-3.13575" dy="5.22625"/>
<feGaussianBlur stdDeviation="3.13575"/>
<feColorMatrix type="matrix" values="0 0 0 0 0 0 0 0 0 0 0 0 0 0 0 0 0 0 0.12 0"/>
<feBlend mode="normal" in2="BackgroundImageFix" result="effect1_dropShadow_259_1628"/>
<feColorMatrix in="SourceAlpha" type="matrix" values="0 0 0 0 0 0 0 0 0 0 0 0 0 0 0 0 0 0 127 0" result="hardAlpha"/>
<feOffset dx="-1.04525" dy="2.0905"/>
<feGaussianBlur stdDeviation="1.56788"/>
<feComposite in2="hardAlpha" operator="out"/>
<feColorMatrix type="matrix" values="0 0 0 0 0 0 0 0 0 0 0 0 0 0 0 0 0 0 0.08 0"/>
<feBlend mode="normal" in2="effect1_dropShadow_259_1628" result="effect2_dropShadow_259_1628"/>
<feBlend mode="normal" in="SourceGraphic" in2="effect2_dropShadow_259_1628" result="shape"/>
</filter>
<filter id="filter3_dd_259_1628" x="7.04099" y="27.6188" width="43.9004" height="43.9004" filterUnits="userSpaceOnUse" color-interpolation-filters="sRGB">
<feFlood flood-opacity="0" result="BackgroundImageFix"/>
<feColorMatrix in="SourceAlpha" type="matrix" values="0 0 0 0 0 0 0 0 0 0 0 0 0 0 0 0 0 0 127 0" result="hardAlpha"/>
<feOffset dx="-3.13575" dy="5.22625"/>
<feGaussianBlur stdDeviation="3.13575"/>
<feColorMatrix type="matrix" values="0 0 0 0 0 0 0 0 0 0 0 0 0 0 0 0 0 0 0.12 0"/>
<feBlend mode="normal" in2="BackgroundImageFix" result="effect1_dropShadow_259_1628"/>
<feColorMatrix in="SourceAlpha" type="matrix" values="0 0 0 0 0 0 0 0 0 0 0 0 0 0 0 0 0 0 127 0" result="hardAlpha"/>
<feOffset dx="-1.04525" dy="2.0905"/>
<feGaussianBlur stdDeviation="1.56788"/>
<feComposite in2="hardAlpha" operator="out"/>
<feColorMatrix type="matrix" values="0 0 0 0 0 0 0 0 0 0 0 0 0 0 0 0 0 0 0.08 0"/>
<feBlend mode="normal" in2="effect1_dropShadow_259_1628" result="effect2_dropShadow_259_1628"/>
<feBlend mode="normal" in="SourceGraphic" in2="effect2_dropShadow_259_1628" result="shape"/>
</filter>
<linearGradient id="paint0_linear_259_1628" x1="103" y1="37.2381" x2="56.3882" y2="61.9204" gradientUnits="userSpaceOnUse">
<stop offset="0.126947" stop-color="#F6465A"/>
<stop offset="1" stop-color="#A42331"/>
</linearGradient>
<linearGradient id="paint1_linear_259_1628" x1="82.3806" y1="41.7461" x2="35.3443" y2="88.7822" gradientUnits="userSpaceOnUse">
<stop offset="0.108965" stop-color="#F7F6F4"/>
<stop offset="1" stop-color="#E8E6DF"/>
</linearGradient>
<linearGradient id="paint2_linear_259_1628" x1="73.1367" y1="50.4688" x2="44.0657" y2="79.5394" gradientUnits="userSpaceOnUse">
<stop offset="0.175465" stop-color="#FFC424"/>
<stop offset="1" stop-color="#E7512C"/>
</linearGradient>
<linearGradient id="paint3_linear_259_1628" x1="47.8056" y1="28.664" x2="16.4479" y2="60.0214" gradientUnits="userSpaceOnUse">
<stop offset="0.126947" stop-color="#F6465A"/>
<stop offset="1" stop-color="#A42331"/>
</linearGradient>
</defs>
</svg>
